<svg width="32" height="32" viewBox="0 0 32 32" fill="none" xmlns="http://www.w3.org/2000/svg">
<g clip-path="url(#clip0_214_3816)">
<path d="M13.9136 0.00480004L14.0736 0.032L27.6736 3.232C27.9096 3.28722 28.1234 3.41262 28.2868 3.5917C28.4501 3.77077 28.5554 3.99512 28.5888 4.2352L28.6 4.4V27.6C28.6001 27.8424 28.5268 28.0792 28.3897 28.2791C28.2526 28.479 28.0582 28.6328 27.832 28.72L27.6752 28.768L14.0752 31.968C13.9125 32.0064 13.7436 32.0103 13.5792 31.9795C13.4149 31.9487 13.2588 31.884 13.121 31.7894C12.9832 31.6948 12.8666 31.5724 12.7788 31.4302C12.691 31.2879 12.6339 31.1288 12.6112 30.9632L12.6 30.8V1.2C12.5998 0.889086 12.7203 0.59023 12.9361 0.366388C13.1519 0.142546 13.4461 0.0111929 13.7568 0L13.9136 0.00480004ZM15 2.7152V29.2848L26.2 26.6496V5.3504L15 2.7152ZM11 3.2V5.6H5.4V26.4H11V28.8H4.2C3.91002 28.8 3.62985 28.695 3.41131 28.5044C3.19277 28.3138 3.05064 28.0505 3.0112 27.7632L3 27.6V4.4C3.00001 4.11002 3.10503 3.82986 3.29563 3.61131C3.48623 3.39277 3.74951 3.25064 4.0368 3.2112L4.2 3.2H11ZM19 14.4C19.4244 14.4 19.8313 14.5686 20.1314 14.8686C20.4314 15.1687 20.6 15.5757 20.6 16C20.6 16.4244 20.4314 16.8313 20.1314 17.1314C19.8313 17.4314 19.4244 17.6 19 17.6C18.5757 17.6 18.1687 17.4314 17.8686 17.1314C17.5686 16.8313 17.4 16.4244 17.4 16C17.4 15.5757 17.5686 15.1687 17.8686 14.8686C18.1687 14.5686 18.5757 14.4 19 14.4Z" fill="#4D4C4D" stroke="#4D4C4D" stroke-width="0.5"/>
</g>
<defs>
<clipPath id="clip0_214_3816">
<rect width="32" height="32" fill="white"/>
</clipPath>
</defs>
</svg>
