<svg width="32" height="32" viewBox="0 0 32 32" fill="none" xmlns="http://www.w3.org/2000/svg">
<g clip-path="url(#clip0_214_3824)">
<path d="M13.9134 0.00480004L14.0734 0.032L27.6734 3.232C27.9095 3.28722 28.1232 3.41262 28.2866 3.5917C28.45 3.77077 28.5553 3.99512 28.5886 4.2352L28.5998 4.4V27.6C28.5999 27.8424 28.5266 28.0792 28.3895 28.2791C28.2524 28.479 28.058 28.6328 27.8318 28.72L27.675 28.768L14.075 31.968C13.9123 32.0064 13.7434 32.0103 13.5791 31.9795C13.4147 31.9487 13.2587 31.884 13.1208 31.7894C12.983 31.6948 12.8664 31.5724 12.7786 31.4302C12.6909 31.2879 12.6338 31.1288 12.611 30.9632L12.5998 30.8V1.2C12.5996 0.889086 12.7201 0.59023 12.9359 0.366388C13.1517 0.142546 13.4459 0.0111929 13.7566 0L13.9134 0.00480004ZM14.9998 2.7152V29.2848L26.1998 26.6496V5.3504L14.9998 2.7152ZM10.9998 3.2V5.6H5.39982V26.4H10.9998V28.8H4.19982C3.90984 28.8 3.62967 28.695 3.41113 28.5044C3.19259 28.3138 3.05045 28.0505 3.01102 27.7632L2.99982 27.6V4.4C2.99983 4.11002 3.10485 3.82986 3.29544 3.61131C3.48604 3.39277 3.74933 3.25064 4.03662 3.2112L4.19982 3.2H10.9998ZM18.9998 14.4C19.4242 14.4 19.8311 14.5686 20.1312 14.8686C20.4313 15.1687 20.5998 15.5757 20.5998 16C20.5998 16.4244 20.4313 16.8313 20.1312 17.1314C19.8311 17.4314 19.4242 17.6 18.9998 17.6C18.5755 17.6 18.1685 17.4314 17.8685 17.1314C17.5684 16.8313 17.3998 16.4244 17.3998 16C17.3998 15.5757 17.5684 15.1687 17.8685 14.8686C18.1685 14.5686 18.5755 14.4 18.9998 14.4Z" fill="#25CBD3" stroke="#25CBD3" stroke-width="0.5"/>
</g>
<defs>
<clipPath id="clip0_214_3824">
<rect width="32" height="32" fill="white"/>
</clipPath>
</defs>
</svg>
